<svg xmlns="http://www.w3.org/2000/svg" viewBox="0 0 488.52 236.24"><defs><style>.a,.b{fill:#fff;}.a{fill-rule:evenodd;}</style></defs><title>Zeichenfläche 1</title><path class="a" d="M445.5,31.11C424.64,9.37,399.06,3.39,370.65,17.19c-1.92.94-4.22,1.09-6.24,1.58L353.83,0c-6.74,27.29-20.59,38.43-47.28,29.23,0,12.45-.76,23.06.16,33.52,1.78,20.38,12.36,35.05,32.18,40.94a25.06,25.06,0,0,1,13.66,9.43,103.73,103.73,0,0,0-1.37,17.32c0,18.51,4.25,33.52,9.49,33.52,3.55,0,6.65-6.89,8.27-17.1.56-2.66.92-5.44,1.28-8.22.2-1.22.42-2.45.67-3.66.81-3.95,2-7.83,3-11.72.31-.59.64-1.17,1-1.72l1.26.09c-.22,2.81-.34,5.76-.34,8.81,0,10.81,1.45,20.41,3.7,26.54v1.88l.83.17c1.45,3.13,3.14,4.93,5,4.93,4.84,0,8.82-12.79,9.41-29.32a48.63,48.63,0,0,1,6.2-14l1-1.47c.48-.65,1-1.29,1.53-1.93.12.26.25.51.37.77-.43,2.44-.81,5-1.1,7.63-2,18.4.54,33.79,5.75,34.36a4.23,4.23,0,0,0,3.39-1.59l.53.36a91.58,91.58,0,0,0,7.38-16.31q3.81-7.28,7.64-14.54c-3,13.24-3.15,24.87-.81,30,0,.12,0,.25,0,.37l.16-.1a4.08,4.08,0,0,0,2.51,2.38c3.46.84,8.11-5.18,12.11-14.78,1.14-1.89,2.21-3.85,3.37-5.71l.19-.24c6.42-7.69,13.53-10.63,22.18-15.21.17,7.3,2.62,15.54.07,21.71-8.17,19.7-23.95,22.77-44.92,26.6-15.45,2.82-31.27,3.69-46.74,6.47-8.48,1.52-17.41,3.84-24.69,8.21-7.51,4.51-10.88,11.2-10.07,17.62-.8,8.85,2.54,18.18,10.09,22.58s17.26,7,26.22,7.84c48.36,4.42,90.81-13.36,105-58.61.22-.66.42-1.34.62-2,.13-.43.26-.86.38-1.29.38-1.37.74-2.78,1.07-4.21C496.28,117.1,482.8,70,445.5,31.11ZM331.72,84.42c-10.31.27-16-6-17.16-15.73-1.07-9.26,7.53-17.84,17-17.33,10.16.54,15.65,6.25,16.4,17.08C347.1,77.9,342,84.16,331.72,84.42Zm53.64-35.93C385,58.13,377,65.72,365.54,65.61c-9.25-.81-15.64-6.72-15.76-17.56S356.35,31,367,30.05C376.8,29.17,385.7,38.55,385.36,48.49Z"/><path class="b" d="M331.28,75.14a4.47,4.47,0,1,1-4.47-4.47A4.48,4.48,0,0,1,331.28,75.14Z"/><path class="b" d="M367.33,53.55a4.47,4.47,0,1,1-4.47-4.47A4.47,4.47,0,0,1,367.33,53.55Z"/><path class="b" d="M59.36,122.8c0,5.83-.7,12.07-.7,17.75,0,2.64.42,5.14.42,7.36,0,4.16-3.19,6.1-6.66,6.1-4.57,0-7.35-2.92-7.35-9,0-9.57,5.41-22.46,5.41-31.9a14,14,0,0,0-1.66-7.35,6.92,6.92,0,0,0-2.08.28c-8.32,2.5-12.35,64.07-28.43,80.16,4.85.83,10.4,2.64,18.16,2.64,12.49,0,25-15,26.77-17.89a3.54,3.54,0,0,1,2.22-1.81c.55,0,1,.42,1,1.25a6,6,0,0,1-.42,1.94c-1.66,4.86-17.61,27.74-35.5,27.74-10.12,0-13.31-2.91-18.58-2.91-8.32,0-8.19,2.36-10.54,2.36A1.35,1.35,0,0,1,0,198c0-4.3,5.13-9,9.57-11,14.56-15.67,10.12-85.57,35.36-85.57,2.92,0,5,1.81,5.69,1.81C57.83,106.58,59.36,114.2,59.36,122.8Z"/><path class="b" d="M105.68,143.75c0,13.31-10,32-24.69,32a18.32,18.32,0,0,1-5.27-.83c0,6.1.56,16.64,9.16,16.64,13.17,0,20.25-15,23.85-20.66.83-1.39,1.53-1.94,2.22-1.94s1,.55,1,1.38a5.54,5.54,0,0,1-.41,1.94c-6.24,15.54-16,27.74-31.9,27.74-11.93,0-16.78-10.82-16.78-24,0-20.67,11.92-47.43,26.49-47.43,3.05,0,6.24,1,7.9,2.36C103.05,131.68,105.68,137,105.68,143.75ZM77.11,171.34c8.18,0,20-21.91,20-32.73,0-2.22-.27-4.57-2.36-4.57-7.9,0-17,20.52-18.72,37.16A3.06,3.06,0,0,0,77.11,171.34Z"/><path class="b" d="M144.65,183.69c-5.41,9.57-12.76,16.36-20.66,16.36-11.1,0-15.67-10.4-15.67-23.16A67,67,0,0,1,114.56,149c1.11-2.49,3.47-5.82,6.93-5.26,2.64-8.74,8.32-15.4,17.06-15.4,11.1,0,15.67,9.43,15.67,21.36,0,9.57-2.77,20.66-7.35,30,5-.14,10.27-2.5,13.59-8.74.84-1.39,1.53-2.36,2.5-2.36.42,0,.83.28.83,1a7.58,7.58,0,0,1-.55,2.5C161.43,177.17,154.08,183.69,144.65,183.69Zm-9.29-1.39c-7.35-2.5-11.51-8.18-13.73-14.84a62.84,62.84,0,0,0-1.52,13c0,7.35,1.8,12.89,6.38,12.89a4,4,0,0,0,1.24-.13C130.37,192.84,133,188.54,135.36,182.3ZM128,157.2c0,8.18,2.5,16.36,9,20.25,3.05-9.85,5.27-22.33,5.27-31.35,0-7.21-1.25-12.48-4.58-12.48C133,133.62,128,145.13,128,157.2Z"/><path class="b" d="M194.72,97.7c3.61,2.08,6.1,4.72,6.1,14,0,19.14-10.54,55.06-27.32,53.39a125.38,125.38,0,0,0-1.8,17.62c0,6,1.66,8.73,5.55,8.73,7.35,0,15.94-10.81,20.8-20.52.69-1.53,1.52-2.08,2.22-2.08.55,0,1,.55,1,1.52a6,6,0,0,1-.42,1.94c-4.3,10.68-16.22,28-28.15,28-9.43,0-12.62-8.46-12.62-20.94,0-7.91,1.25-17.48,3.19-27.46,5.13-27.74,13.31-57,25.93-57A7,7,0,0,1,194.72,97.7Zm-20.66,64.07c11.23-9.15,19-39.11,19-55.33a37.45,37.45,0,0,0-.42-6C187.65,102,178.35,136.39,174.06,161.77Z"/><path class="b" d="M234.39,188.26c0,2.08.69,3.47,1.94,3.47,2.91,0,7.21-7.35,13.73-20.8.69-1.53,1.8-2.36,2.49-2.36.42,0,.84.42.84,1.39a6.16,6.16,0,0,1-.56,2.35c-1.94,4.86-10.68,27.6-21.36,27.6-4.3,0-9.43-2.35-9.43-12.76a18.41,18.41,0,0,1,.14-2.63c-4.58,9.43-9.85,15.39-14.28,15.39-7.49,0-10.68-8-10.68-18.86,0-21.08,12.2-52.42,28.15-52.42,5.55,0,9,6,9.29,10.26h.84a7.86,7.86,0,0,1,7.62,8A10.35,10.35,0,0,1,243,149C239.24,166.63,234.39,181.61,234.39,188.26Zm-7.63-26.35,4.44-20c0-2.36-.42-5.27-3.75-5.27-9.29,0-17.75,32.45-17.75,47,0,4.16.69,6.79,2.36,6.79C217.19,190.48,223.29,177.31,226.76,161.91Z"/><path class="b" d="M270.86,99.36c3.05,0,5.83,1.81,5.83,5.14,0,.55-.14,1.11-6.38,25.1a22.3,22.3,0,0,1,7.77-1.25c10.81,0,15.39,10.12,15.39,22.74a69.93,69.93,0,0,1-7.21,29.82c4.85-.55,9.84-2.91,13.17-10,.7-1.53,1.67-2.22,2.36-2.22s1,.55,1,1.38a4.8,4.8,0,0,1-.55,2.22c-3.61,8.33-10.4,12.9-18.73,13.46-5.27,8.46-12.2,14.28-20.24,14.28-8.46,0-13.6-6.93-13.6-21.91a120,120,0,0,1,3.06-24.41c7.49-34.95,9.15-42.3,10.95-49A7.17,7.17,0,0,1,270.86,99.36Zm-9.57,74.48a63.09,63.09,0,0,0-.41,6.8c0,7.76,1.8,12.62,6.38,12.62,2.63,0,5.13-3.33,7.21-8.46C268.92,183.27,264.48,179.11,261.29,173.84ZM265,157.06c0,9.57,3,19.14,11.23,22.47a109.64,109.64,0,0,0,4.3-29.27c0-8.87-1.52-15.81-5.27-16.09C269.75,134.17,265,145,265,157.06Z"/><path class="b" d="M314.27,141.8a32.12,32.12,0,0,1-2.08-11.09c0-9.29,4.3-16.78,9.57-16.78,3.33,0,5.13,2.35,5.13,6.24,0,5.13-2.91,13.17-8.73,22.46,3,10,10.68,23.72,10.68,34.82s-5.69,22.6-19.84,22.6c-15.53,0-20.94-7.9-20.94-14.56,0-4.85,2.78-9.71,7.77-8.88C302.76,166.07,310.25,150.4,314.27,141.8Zm-15,36.75c1.52,1.67,1.38,4.3,1.38,11.24,0,4.58,1.53,7.07,4.86,7.07,4.57,0,10.12-4.71,10.12-22.19,0-4.71-.55-14.14-1-22.6C310.25,162.33,303.46,172.45,299.3,178.55Z"/></svg>