<svg version="1" xmlns="http://www.w3.org/2000/svg" width="322.667" height="322.667" viewBox="0 0 242.000000 242.000000"><path d="M73 6.7C68.3 21 61 30.4 52.3 33.2c-4.4 1.5-12.9 1.7-17.8.5-1.1-.3-3.2-.8-4.7-1.2-3.2-.8-3-2.1-3.1 19-.1 17 .8 22.5 4.8 31.2 5.2 11.4 12.8 18.1 26.3 23.1 9.4 3.4 15.5 8.3 14.6 11.8-2 8-.5 32.5 2.6 41.9 1.3 3.9 5.4 7.7 7.5 6.9 2.6-1 5.6-9.1 7.5-20.4 2-11.5 4.8-22.5 5.5-21.8.3.2.7 5.8.9 12.4.3 6.5.7 12.8.9 13.9 2.1 8.7 3.2 11.8 5.3 14 2.7 2.9 4.9 2.4 7.7-1.8 1.8-2.8 4.7-15.9 4.7-21.2 0-4.6 3-13.2 6.4-18.1l2.6-3.8-.7 6.4c-2 17.5-.1 32.8 4.5 35.8 2.4 1.6 2.6 1.5 5.2-1.7 1.6-1.8 3.6-5.4 4.5-7.9 1-2.6 3.5-8.1 5.7-12.2l3.9-7.5-.8 5c-1.2 7.9-.9 18.7.6 22.2 2.7 6.5 8.2 2.8 14.1-9.4 1.9-3.8 5.4-8.8 8-11.3 4.6-4.5 16.4-11.5 17.9-10.6.7.5 1.1 4.4 1.5 13.3.4 8.8-8.6 21.4-18.6 26.1-4.6 2.1-16.9 5.6-23.8 6.7-1.9.3-4.2.8-5 1-.8.2-3.9.7-6.9 1-3 .4-6.1.8-7 1-.9.1-4.7.6-8.6 1-3.8.4-7.7.8-8.5 1-.8.2-3.7.6-6.3.9-4.3.6-9.1 1.5-16.7 3.1-4.7.9-13.5 4.8-17.7 7.8-6.5 4.6-8.7 10-8 19.6.3 4.3 1.2 9.1 2 10.7 5.5 10.7 19.9 16.2 44.2 16.9 37 1.1 65.8-11.1 83.5-35.1 8.3-11.4 14.7-29.8 16.8-48.4.9-8.5.9-32.1 0-38.7-4.5-30.7-19-59.4-41.8-82.3-14.8-15-26.6-20.8-43.1-21.5-9.5-.4-17 1-27.1 5-10.6 4.2-10.5 4.2-15.8-5.2-2.5-4.5-4.9-8.5-5.2-8.8-.3-.4-1.2 1.1-1.8 3.2zm24.5 28.7c3.5 2.3 7.4 8.8 7.9 13.3.7 5.6-3.2 13.3-8.3 16.1-6.1 3.5-12.1 3.9-17.5 1.3-5.8-2.8-8.7-7.4-9.1-14.5-.4-6.2 2.2-12.7 6.2-15.3 6.3-4.1 15.3-4.5 20.8-.9zM57.2 55c11.5 3.2 14.4 20.4 4.8 28.1-5.8 4.7-16.5 4.5-21.7-.3-5.6-5.2-6.7-15.7-2.3-21.8 4.2-5.9 11.3-8.1 19.2-6z"/><path d="M80.7 52.4c-2.3 1.8-2.7 4.2-1.1 6.4 2.2 3.2 8.7 1.1 8.1-2.7-.6-3.8-4.4-5.9-7-3.7zM43.9 74.7c-1.6 1.8-1.3 5.4.5 6.5 2.1 1.4 5.5.8 6.6-1.1 2.5-4.9-3.7-9.6-7.1-5.4z"/></svg>